<?xml version="1.0" encoding="UTF-8" standalone="no"?>
<!-- Created with Inkscape (http://www.inkscape.org/) -->

<svg
   version="1.1"
   id="svg27026"
   width="2184"
   height="756"
   viewBox="0 0 2184 756"
   sodipodi:docname="logo2.svg"
   inkscape:version="1.1.2 (b8e25be833, 2022-02-05)"
   xmlns:inkscape="http://www.inkscape.org/namespaces/inkscape"
   xmlns:sodipodi="http://sodipodi.sourceforge.net/DTD/sodipodi-0.dtd"
   xmlns="http://www.w3.org/2000/svg"
   xmlns:svg="http://www.w3.org/2000/svg">
  <defs
     id="defs27030" />
  <sodipodi:namedview
     id="namedview27028"
     pagecolor="#ffffff"
     bordercolor="#111111"
     borderopacity="1"
     inkscape:pageshadow="0"
     inkscape:pageopacity="0"
     inkscape:pagecheckerboard="1"
     showgrid="false"
     inkscape:zoom="0.34821429"
     inkscape:cx="1359.7949"
     inkscape:cy="376.20513"
     inkscape:window-width="1920"
     inkscape:window-height="1001"
     inkscape:window-x="-9"
     inkscape:window-y="-9"
     inkscape:window-maximized="1"
     inkscape:current-layer="g27032" />
  <g
     inkscape:groupmode="layer"
     inkscape:label="Image"
     id="g27032">
    <path
       style="fill:#010101;stroke-width:1.33333"
       d="m 978.89562,761.96251 c -2.9333,-0.97508 -7.4333,-2.85515 -10,-4.17793 -3.487,-1.79711 -108.3191,-76.35046 -119.8846,-85.25823 -1.6034,-1.23492 -1.759,0.18816 -1.0428,9.53496 0.4674,6.09917 0.2147,14.37917 -0.568,18.61305 -3.9586,21.41432 -21.7983,39.15239 -43.1712,42.92524 -4.7533,0.83907 -36.4088,1.56027 -78,1.77703 l -70,0.36483 -8,-3.9181 c -10.1867,-4.98904 -20.4818,-15.26713 -25.1187,-25.07716 -4.2344,-8.95829 -5.6689,-19.28081 -6.949,-50.00474 -0.4965,-11.91667 -1.092,-21.66667 -1.3233,-21.66667 -0.2312,0 -4.1442,2.47339 -8.6955,5.4964 -10.7045,7.11013 -37.6977,20.07741 -50.9878,24.49404 -25.9057,8.60911 -62.852,12.31077 -87.7251,8.7892 -38.16545,-5.40353 -70.99077,-20.99647 -95.97371,-45.59016 -12.5645,-12.36872 -13.09744,-12.72772 -15.45344,-10.40972 -5.09899,5.01675 -77.38408,56.34405 -83.10682,59.01144 -4.92629,2.29619 -8.6246,2.80369 -20.66666,2.83605 -13.16824,0.0353 -15.44559,-0.32566 -22.29076,-3.534 -9.4281,-4.41894 -19.47674,-13.64684 -24.02332,-22.06116 -1.89172,-3.50098 -25.4079,-69.29369 -52.25816,-146.20601 -26.85028,-76.91232 -49.09195,-140.28273 -49.42594,-140.82315 -0.334,-0.5404 -3.34386,-1.29101 -6.688597,-1.66801 -9.0702,-1.02235 -21.97984,-7.96621 -29.23957,-15.72745 -8.33273,-8.90838 -13.29818,-19.97612 -31.37829,-69.9408 -8.22624,-22.73334 -17.71522,-47.93334 -21.08663,-56 -5.8627604,-14.02766 -6.1330004,-15.24759 -6.2026104,-28 -0.0673,-12.32059 0.25224,-14.01951 4.2062604,-22.36702 5.12037,-10.80986 14.75934,-20.71522 24.70047,-25.3831 8.04387,-3.77703 68.656107,-23.46982 99.538987,-32.34001 37.25616,-10.70074 74.91665,-19.14298 104.81482,-23.49605 18.68207,-2.720042 84.66176,-2.248732 99.6932,0.71214 52.81899,10.40417 92.71384,38.8999 115.72111,82.65618 9.92916,18.88376 12.39386,29.7197 11.56696,50.85307 -0.518,13.2366 -1.4828,20.05771 -4.05852,28.69224 -1.85843,6.23009 -3.20435,11.50205 -2.99095,11.71547 0.21342,0.2134 4.81607,-1.09514 10.22807,-2.90784 20.7242,-6.94136 36.0249,-9.27411 61.4906,-9.37486 20.3601,-0.0805 23.5705,-0.3718 23.0759,-2.09356 -2.7423,-9.54708 -2.1639,-15.47581 5.2294,-53.60605 8.4632,-43.64805 11.1302,-51.26939 21.6079,-61.74712 3.358,-3.35795 8.8799,-7.5086 12.2709,-9.22366 11.2204,-5.67492 140.2355,-59.402422 146.3231,-60.935272 8.1283,-2.04675 22.1756,-0.76747 31.8423,2.89988 11.2112,4.25326 24.4011,17.46439 28.5663,28.612232 3.8802,10.38501 4.0884,12.7557 11.6239,132.33333 3.5237,55.91666 6.7975,101.66666 7.275,101.66666 0.4776,0 9.5334,-4.779 20.1241,-10.62001 18.3305,-10.10972 30.4485,-14.71332 38.7298,-14.71332 2.0673,0 19.9589,2.43816 39.759,5.41813 l 36.0003,5.41814 6.6117,-4.85343 6.6117,-4.85343 -6.3176,-6.25516 c -6.1568,-6.09606 -38.6935,-55.99506 -42.5857,-65.3106 -7.9905,-19.12385 -2.8434,-42.94765 12.49,-57.81101 4.8738,-4.72441 23.834,-15.90109 77.77818,-45.84881 39.2333,-21.7808 73.8954,-40.75291 77.0269,-42.16025 19.0019,-8.539862 44.1075,-3.740652 58.5104,11.18487 8.011,8.30181 69.5338,103.75666 72.7503,112.87491 7.3137,20.7332 -2.2121,49.27052 -20.0938,60.19664 -3.0004,1.83333 -5.4714,3.6628 -5.4912,4.06548 -0.02,0.40268 2.2142,1.52375 4.9642,2.49125 2.75,0.96751 11.6276,5.0451 19.7281,9.06131 l 14.7282,7.3022 12.6052,-8.22215 c 21.4225,-13.97354 51.1936,-26.99493 71.6302,-31.32982 l 4.3583,-0.92448 -0.3583,-84.88856 -0.3584,-84.888562 3.5472,-7.56686 c 3.9547,-8.4361 12.6944,-18.62298 19.7861,-23.06251 2.5667,-1.60677 30.9727,-14.76231 63.1244,-29.23455 40.2562,-18.12021 60.9859,-26.75849 66.5775,-27.74343 20.0529,-3.5322396 43.4277,7.40894 53.8601,25.21064 7.4498,12.712 7.2127,9.30248 9.6964,139.403282 1.2707,66.55361 2.574,121.27025 2.8963,121.59252 0.3223,0.32228 6.0127,-1.45241 12.6453,-3.94375 29.6596,-11.1406 50.8099,-15.32277 82.5334,-16.31985 l 22.6666,-0.71241 2.9871,-6.24542 c 6.4097,-13.40168 22.872,-25.39737 38.1395,-27.79154 4.7617,-0.74672 31.6337,-0.096 76.4416,1.85098 90.9348,3.95134 86.9322,3.60978 96.8866,8.268 11.6882,5.46955 15.8774,9.58084 33.674,33.04704 8.6139,11.3581 16.1142,20.48535 16.6674,20.28279 0.553,-0.20255 8.1002,-9.76992 16.7714,-21.26084 8.6711,-11.49092 18.4658,-23.04227 21.7658,-25.66967 7.7173,-6.1444 18.405,-10.14334 29.3317,-10.9748 28.3988,-2.16101 148.968,-6.5786 154.7224,-5.66896 21.9224,3.46548 40.0531,21.62355 43.9532,44.01967 1.8179,10.43917 0.3435,20.65235 -4.4821,31.04524 -1.7384,3.74427 -30.895,42.74457 -64.7923,86.66733 -33.8972,43.92278 -61.8672,80.52278 -62.1556,81.33334 -0.2883,0.81057 23.5444,33.27376 52.9615,72.14042 32.9994,43.59975 55.0769,73.9862 57.6401,79.33334 3.7505,7.82428 4.1544,9.89785 4.1544,21.33333 0,11.45528 -0.4035,13.51841 -4.2193,21.57281 -7.5434,15.92226 -21.1835,26.99228 -37.596,30.51215 -8.2356,1.76623 -142.499,-1.88617 -155.4736,-4.22939 -8.852,-1.59866 -18.1415,-5.86552 -24.598,-11.29842 -2.347,-1.97482 -9.3883,-10.25806 -15.6474,-18.40719 -6.259,-8.14915 -11.8214,-14.98232 -12.3609,-15.18484 -0.5395,-0.20252 -6.7597,6.99748 -13.8229,16 -16.3772,20.87384 -25.7594,27.40599 -42.504,29.59267 -3.1779,0.41498 -37.3675,1.70944 -75.9768,2.87656 -64.618,1.9533 -70.8687,1.95045 -78.6224,-0.036 -14.6448,-3.75183 -29.0958,-15.51028 -34.7382,-28.26566 -1.9237,-4.3491 -3.2238,-5.7841 -4.7201,-5.20993 -6.3068,2.42015 -40.7248,7.60157 -59.6135,8.97445 -25.541,1.8564 -52.795,0.2117 -74.6997,-4.50792 -16.2484,-3.50094 -19.3248,-3.49825 -28.7719,0.0252 -6.4454,2.40398 -15.425,3.18244 -71.9417,6.23686 -35.5173,1.9195 -67.0033,3.08892 -69.9687,2.5987 -2.9653,-0.49021 -8.3474,-2.00464 -11.9602,-3.3654 -5.8722,-2.21172 -7.9932,-2.32308 -20.0001,-1.05005 -40.0603,4.2474 -87.1321,-7.42765 -118.3723,-29.35949 l -7.059,-4.95567 -11.0532,5.087 c -40.0335,18.4244 -95.7815,30.32759 -142.2802,30.37931 l -12,0.0133 v 19.66707 c 0,18.57364 -0.1998,20.09352 -3.5945,27.33726 -4.9399,10.54104 -15.5812,21.42872 -25.917,26.51699 -7.0401,3.46587 -10.3305,4.22501 -20.11918,4.6418 -7.4652,0.31785 -13.6338,-0.14367 -17.036,-1.27459 z m 10.3041,-104.579 c -1.6537,-27.39747 -1.9223,-38.85836 -0.9014,-38.4666 9.6391,3.69887 25.87578,7.78525 38.12048,9.594 19.4714,2.87628 58.8527,1.92215 79.8102,-1.93364 40.8214,-7.51041 76.7375,-21.38719 101.6203,-39.26288 l 10.2869,-7.39005 4.7815,6.5137 c 12.9839,17.68763 34.2427,31.98298 58.7269,39.49056 10.9333,3.35247 13.7903,3.66091 34.5845,3.7336 23.5787,0.0824 31.4341,-1.0673 49.2088,-7.20245 4.3314,-1.49507 8.0814,-2.71829 8.3333,-2.71829 0.2517,0 0.4579,3.3 0.4579,7.33333 v 7.33333 h 5.619 c 9.6003,0 109.6152,-5.43005 111.4535,-6.05108 1.3687,-0.46236 1.5371,-3.78186 0.7905,-15.58016 l -0.9488,-14.9926 6.7812,6.09683 c 13.4903,12.12891 34.8776,20.6488 61.8276,24.6298 19.4715,2.87628 58.8528,1.92215 79.8103,-1.93364 59.0896,-10.87141 108.0076,-35.52412 126.0071,-63.50248 7.7477,-12.04328 9.5117,-8.48681 -24.7732,-49.94875 -17.0024,-20.56152 -31.2928,-37.38458 -31.7564,-37.38458 -0.4638,0 -4.0872,4.90486 -8.0522,10.8997 -18.2514,27.59532 -42.562,45.86664 -68.1161,51.19484 -19.1904,4.00131 -23.0791,9.91082 54.7633,-83.22129 38.8268,-46.45304 70.5942,-84.93076 70.5942,-85.50605 0,-1.80322 -11.908,-10.90107 -22.9712,-17.55022 -13.6852,-8.22502 -34.0204,-16.10702 -51.6955,-20.03726 -12.062,-2.68214 -17.5991,-3.1105 -40,-3.09452 -19.5369,0.0139 -28.9067,0.60588 -37.6932,2.3813 -46.0936,9.31378 -90.9745,35.92647 -110.4641,65.501 l -7.8427,11.90083 -0.023,-21.23416 c -0.012,-11.6788 -1.2022,-82.43417 -2.644,-157.23417 -1.4417,-74.8 -2.6316,-143.050002 -2.644,-151.666672 -0.017,-11.65162 -0.4497,-15.65756 -1.6893,-15.63113 -0.9167,0.0195 -25.3667,10.74145 -54.3333,23.82645 l -52.6664,23.790912 0.4329,102.653 0.433,102.653 -19.0996,0.75101 c -14.6897,0.57763 -22.0243,1.55133 -31.7663,4.21715 -16.0226,4.38445 -41.1592,16.64773 -56.5855,27.60613 -14.5716,10.35123 -41.6476,36.16209 -49.3983,47.09005 -16.0902,22.6861 -24.0658,47.78462 -25.7954,81.17616 l -0.8875,17.13274 -7.1321,-8.7994 c -3.9227,-4.83967 -7.53,-8.7994 -8.0162,-8.7994 -0.4862,0 -4.1281,4.90486 -8.0931,10.8997 -18.2515,27.59532 -42.5619,45.86664 -68.1161,51.19484 -19.1904,4.00131 -23.0791,9.91082 54.7633,-83.22129 38.8269,-46.45304 70.5942,-84.93076 70.5942,-85.50605 0,-1.80322 -11.908,-10.90107 -22.9711,-17.55022 -13.6852,-8.22502 -34.0206,-16.10702 -51.6956,-20.03726 -12.0621,-2.68214 -17.5991,-3.1105 -40,-3.09452 -19.537,0.0139 -28.9067,0.60588 -37.6932,2.3813 -34.7631,7.02431 -65.8883,22.37659 -94.91188,46.81456 l -6.1929,5.2144 -44.9343,-6.7739 -44.9344,-6.77391 -54.2341,29.70489 -54.234,29.70488 -0.7311,-6.14537 c -0.402,-3.37996 -4.6992,-70.04539 -9.5492,-148.14539 -4.85,-78.1 -9.2157,-143.00055 -9.7016,-144.22346 -0.7543,-1.89862 -10.4282,1.78285 -66.2167,25.19909 -35.9333,15.08239 -65.5657,27.6154 -65.8499,27.85112 -0.7627,0.63287 -13.3219,63.76052 -12.7924,64.30012 0.2484,0.25311 8.6904,-1.40104 18.76,-3.67588 10.0696,-2.27485 18.4519,-3.98195 18.6273,-3.79353 0.3961,0.4254 7.2841,131.91677 7.2468,138.34254 -0.026,4.4887 -0.2376,4.28531 -5.5493,-5.33333 -7.307,-13.23176 -22.5204,-28.45123 -35.7758,-35.78988 -13.2997,-7.3632 -34.1822,-15.45049 -47.3333,-18.33108 -7.6869,-1.68372 -16.44,-2.32343 -31.3334,-2.28996 -17.9023,0.0403 -22.4167,0.50925 -33.7509,3.50657 -25.0449,6.62319 -45.77551,17.4934 -69.41104,36.39615 -35.42683,28.33296 -53.39231,55.07608 -61.24943,91.17487 -4.02861,18.50908 -3.94464,55.13993 0.1702,74.25121 5.82166,27.03848 15.18339,48.44168 29.25764,66.89011 9.88215,12.95344 20.73447,21.61369 36.98356,29.51324 19.34355,9.40393 33.07077,12.50161 55.33337,12.4865 26.6187,-0.0181 43.8326,-4.23848 70,-17.1622 25.9212,-12.80217 50.5444,-34.10865 71.507,-61.87521 12.0658,-15.98204 19.5043,-30.26731 24.3539,-46.77032 1.8318,-6.23333 3.3474,-9.83333 3.368,-8 0.07,6.19379 9.8167,195.33033 10.084,195.67781 0.3505,0.4557 123.685,-2.23128 124.1586,-2.70492 0.2016,-0.20156 -1.0879,-28.51208 -2.8655,-62.91229 -1.7775,-34.4002 -2.9893,-62.78847 -2.6927,-63.08504 0.2966,-0.29659 46.0374,32.24093 101.6463,72.3056 l 101.107,72.84483 0.3298,-6.39632 c 0.1814,-3.51799 -0.7302,-23.95742 -2.0257,-45.42095 z m -95.9006,-122.64205 c -24.9969,-18.88334 -45.2207,-34.71464 -44.9418,-35.1807 0.5212,-0.871 94.7275,-73.33365 97.3096,-74.8497 0.7909,-0.46434 -1.1256,6.77754 -4.2588,16.09308 -14.9387,44.41552 -16.3526,87.91906 -3.9847,122.60398 1.1113,3.11667 1.864,5.66667 1.6725,5.66667 -0.1914,0 -20.8,-15.45 -45.7968,-34.33333 z m 129.90378,-23.83614 c -0.4215,-0.68206 -2.1307,-6.32296 -3.7981,-12.53532 -4.2822,-15.95416 -4.3131,-35.87426 -0.075,-48.2158 5.7161,-16.64476 16.9613,-30.60285 28.9146,-35.8904 8.6547,-3.82833 20.5464,-6.52234 28.7907,-6.52234 8.0922,0 25.6409,4.7009 24.9449,6.68213 -0.2298,0.65419 -17.2179,22.03427 -37.7512,47.51128 -20.5334,25.47701 -37.9918,47.1968 -38.7965,48.2662 -0.8047,1.0694 -1.808,1.38631 -2.2296,0.70425 z m 533.3335,0 c -0.4216,-0.68206 -2.1308,-6.32296 -3.7981,-12.53532 -4.2823,-15.95416 -4.3131,-35.87426 -0.075,-48.2158 5.7161,-16.64476 16.9613,-30.60285 28.9147,-35.8904 8.6545,-3.82833 20.5464,-6.52234 28.7906,-6.52234 8.0922,0 25.641,4.7009 24.9448,6.68213 -0.2298,0.65419 -17.2178,22.03427 -37.7512,47.51128 -20.5333,25.47701 -37.9917,47.1968 -38.7965,48.2662 -0.8047,1.0694 -1.808,1.38631 -2.2295,0.70425 z M 522.22902,485.91607 c -13.976,-4.05493 -31.3485,-14.3648 -36.9329,-21.91813 -12.9727,-17.54646 -12.6397,-39.17156 0.9208,-59.80428 6.3907,-9.72355 17.9846,-20.7007 28.4529,-26.93922 9.246,-5.51013 27.0486,-11.6283 36.8925,-12.67876 l 7.3333,-0.78254 -6.6939,3.8263 c -8.3926,4.79734 -17.3827,14.44926 -20.932,22.47284 -5.7969,13.10506 -3.5134,32.1367 4.5706,38.09307 2.1867,1.61112 6.5204,2.90211 10.9849,3.27235 9.6642,0.80142 19.0754,-3.6777 29.3814,-13.98375 8.1445,-8.14445 12.754,-15.21269 17.44,-26.74229 l 3.0197,-7.42983 1.1047,6.55315 c 4.6272,27.4496 -4.8968,61.1678 -22.6328,80.12768 -11.0267,11.78757 -21.444,16.78732 -36.0365,17.29554 -6.1839,0.21539 -13.4602,-0.37204 -16.8727,-1.36213 z m 832.00008,0.46877 c -14.4244,-2.50732 -32.6385,-12.23785 -41.1925,-22.00625 -7.8121,-8.92115 -10.1466,-15.696 -10.0979,-29.3038 0.037,-10.40416 0.568,-13.15256 3.9908,-20.66667 3.845,-8.44066 12.2382,-19.96005 19.1915,-26.33945 10.2603,-9.41348 29.5323,-19.49716 42.6642,-22.32315 l 4.5561,-0.98048 -4.8621,4.26895 c -7.3447,6.44877 -12.9405,18.93365 -13.8264,30.84828 -1.25,16.81385 3.7596,27.54251 14.3412,30.71283 l 5.2351,1.56846 v 26.95562 26.95561 l -4.1667,0.83333 c -4.8991,0.97982 -7.7232,0.88648 -15.8333,-0.52328 z m 452.0334,167.5451 c 28.2518,-0.91323 52.0078,-2.05654 52.7911,-2.54068 0.7833,-0.48415 15.1059,-18.62379 31.8277,-40.31032 16.7219,-21.68652 30.8907,-39.25923 31.4864,-39.05043 0.5956,0.20879 14.663,18.07961 31.2608,39.71295 28.14,36.67726 30.5072,39.38944 35.0559,40.16416 5.7137,0.97317 129.3549,4.49457 130.0689,3.70446 0.266,-0.29441 -28.5389,-38.93529 -64.011,-85.86862 -35.4722,-46.93334 -64.2227,-86.07071 -63.89,-86.97194 0.3326,-0.90122 33.0606,-43.71909 72.7289,-95.15081 39.6683,-51.43172 71.7705,-93.86572 71.3384,-94.29777 -1.0683,-1.06828 -141.1416,5.00513 -142.1919,6.16526 -0.4589,0.50706 -16.5538,21.79088 -35.7664,47.29739 l -34.9317,46.37548 -35.3587,-46.79864 c -19.4472,-25.73925 -36.0524,-47.03792 -36.9002,-47.33037 -2.529,-0.8723 -127.6383,-6.16748 -134.9132,-5.71012 l -6.705,0.42152 61.7356,80 c 33.9546,44 66.8728,86.71993 73.1516,94.93317 l 11.416,14.93317 -63.6533,84.40016 c -35.0095,46.4201 -64.2339,85.15016 -64.9433,86.06683 -1.6395,2.11845 11.0954,2.09552 80.4034,-0.14485 z M 289.17564,609.25234 c 28.68268,-20.7872 30.0646,-21.98902 29.12948,-25.33334 -0.53993,-1.93098 -11.05932,-38.94077 -23.37643,-82.24396 l -22.39473,-78.73309 8.51417,-7.91159 c 48.40942,-44.98324 86.98215,-87.89589 110.67679,-123.12929 22.67029,-33.71021 29.51328,-59.13745 20.91533,-77.71744 -11.06192,-23.90457 -31.97662,-43.34843 -57.013,-53.00348 -20.46342,-7.89152 -26.65276,-8.71633 -65.39826,-8.71513 -32.71618,10e-4 -36.8963,0.27625 -56.43442,3.71604 -23.94609,4.21582 -60.11402,12.90749 -89.56558,21.52386 -18.43332,5.39288 -82.164747,25.8644 -83.053307,26.67802 -0.21266,0.19472 1.36756,4.78004 3.51159,10.18961 2.14403,5.40956 11.13397,29.63557 19.97765,53.83557 8.84368,24.2 17.074837,46.37763 18.291467,49.2836 l 2.21205,5.2836 5.53027,-5.95733 c 3.04165,-3.27653 8.70494,-9.47949 12.58508,-13.78436 3.88015,-4.30485 7.33764,-7.54417 7.68332,-7.19849 0.58411,0.5841 119.26188,339.56005 119.26188,340.64433 0,0.69683 4.96562,-2.80009 38.94665,-27.42713 z m -48.85028,-293.7613 -10.36352,-37.64204 3.13357,-2.58628 c 8.4273,-6.95544 27.69311,-13.21658 45.80024,-14.8845 10.3847,-0.95658 30.69223,1.17132 33.51196,3.51149 5.06611,4.20449 -1.9846,20.47251 -16.98317,39.18508 -10.59596,13.21977 -34.66585,40.55943 -40.81764,46.36248 l -3.91792,3.69583 z M 1787.9328,483.44035 c -0.7385,-0.9344 -6.7791,-8.76436 -13.4233,-17.39992 -6.8946,-8.96069 -12.4671,-15.07568 -12.9808,-14.24435 -0.4952,0.80118 1.4424,4.26663 4.3057,7.70103 2.8633,3.43439 9.0435,10.87437 13.7336,16.53331 4.6901,5.65893 8.7931,10.02342 9.1176,9.69889 0.3247,-0.32455 -0.015,-1.35457 -0.7528,-2.28896 z M 1086.0625,256.4717 c 44.2751,-8.40744 80.7939,-15.57995 81.1529,-15.93891 0.6448,-0.64475 -54.3628,-86.36919 -57.7534,-90.00363 -1.4886,-1.59573 -11.6628,3.61848 -67.493,34.58967 -36.157,20.05776 -67.35548,37.43575 -69.32988,38.61776 l -3.5899,2.14912 5.1289,7.92787 c 2.8208,4.36033 9.6786,14.99125 15.2394,23.62425 8.8253,13.70112 10.494,15.60891 13.12758,15.00825 1.6595,-0.37848 39.2423,-7.56694 83.5174,-15.97438 z"
       id="path27450" />
  </g>
</svg>
